<?xml version="1.0" encoding="utf-8"?>
<!-- Generator: Adobe Illustrator 27.5.0, SVG Export Plug-In . SVG Version: 6.00 Build 0)  -->
<svg version="1.1" xmlns="http://www.w3.org/2000/svg" xmlns:xlink="http://www.w3.org/1999/xlink" x="0px" y="0px"
	 viewBox="0 0 2200 2200" style="enable-background:new 0 0 2200 2200;" xml:space="preserve">
<g id="background">
	<rect style="fill:#FFFFFF;" width="2200" height="2200"/>
</g>
<g id="Objects">
	<g>
		<g>
			<rect x="332.668" y="527.915" width="10" height="865.6"/>
			<rect x="373.28" y="527.915" width="10" height="865.6"/>
			<rect x="1816.72" y="527.915" width="10" height="865.6"/>
			<rect x="1857.331" y="527.915" width="10" height="865.6"/>
			<rect x="668.582" y="527.915" width="10" height="756.529"/>
			<rect x="709.193" y="527.915" width="10" height="756.529"/>
			<rect x="472.931" y="527.915" width="30" height="756.529"/>
			<rect x="577.802" y="527.915" width="50" height="756.529"/>
			<rect x="1058.45" y="527.915" width="10" height="756.529"/>
			<rect x="1099.062" y="527.915" width="10" height="756.529"/>
			<rect x="967.67" y="527.915" width="50" height="756.529"/>
			<rect x="533.984" y="527.915" width="10" height="756.529"/>
			<rect x="753.729" y="527.915" width="30" height="756.529"/>
			<rect x="814.782" y="527.915" width="10" height="756.529"/>
			<rect x="861.638" y="527.915" width="30" height="756.529"/>
			<rect x="922.692" y="527.915" width="10" height="756.529"/>
			<rect x="1233.658" y="527.915" width="10" height="756.529"/>
			<rect x="1274.27" y="527.915" width="10" height="756.529"/>
			<rect x="1142.879" y="527.915" width="50" height="756.529"/>
			<rect x="1532.747" y="527.915" width="50" height="756.529"/>
			<rect x="1318.805" y="527.915" width="30" height="756.529"/>
			<rect x="1379.859" y="527.915" width="10" height="756.529"/>
			<rect x="1426.715" y="527.915" width="30" height="756.529"/>
			<rect x="1622.81" y="527.915" width="30" height="756.529"/>
			<rect x="1697.069" y="527.915" width="30" height="756.529"/>
			<rect x="1487.769" y="527.915" width="10" height="756.529"/>
		</g>
		<polygon points="394.228,1556.262 172.443,1556.262 172.443,1334.478 192.443,1334.478 192.443,1536.262 394.228,1536.262 		"/>
		<polygon points="192.443,586.953 172.443,586.953 172.443,365.167 394.228,365.167 394.228,385.167 192.443,385.167 		"/>
		<polygon points="2027.557,1556.262 1805.771,1556.262 1805.771,1536.262 2007.557,1536.262 2007.557,1334.478 2027.557,1334.478 
					"/>
		<polygon points="2027.557,586.953 2007.557,586.953 2007.557,385.167 1805.771,385.167 1805.771,365.167 2027.557,365.167 		"/>
		<g>
			<path d="M1485.452,1650.819v132.141c0,23.127-18.745,41.872-41.872,41.872H756.42c-23.127,0-41.872-18.745-41.872-41.872
				v-132.141c0-23.127,18.745-41.872,41.872-41.872h281.69l61.89-79.241l61.89,79.241h281.69
				C1466.707,1608.947,1485.452,1627.692,1485.452,1650.819z"/>
			<g>
				<path style="fill:#FFFFFF;" d="M861.371,1718.561c-4.704-4.347-12.115-7.523-22.233-9.529l-10.231-2.073
					c-5.528-1.114-9.585-2.596-12.17-4.446c-2.586-1.849-3.878-4.313-3.878-7.389v-0.067c0-2.274,0.657-4.29,1.973-6.051
					c1.314-1.761,3.22-3.132,5.717-4.113c2.496-0.98,5.46-1.471,8.893-1.471c3.343,0,6.285,0.491,8.826,1.471
					c2.541,0.981,4.602,2.363,6.185,4.146c1.582,1.783,2.53,3.945,2.842,6.486l0.134,0.802h19.057l-0.067-1.204
					c-0.312-5.661-1.984-10.599-5.015-14.81c-3.032-4.213-7.255-7.489-12.672-9.83c-5.415-2.339-11.846-3.51-19.291-3.51
					c-7.133,0-13.463,1.226-18.99,3.678c-5.528,2.452-9.874,5.862-13.039,10.231c-3.166,4.369-4.77,9.495-4.814,15.379v0.067
					c0,7.266,2.417,13.184,7.255,17.753c4.836,4.571,12.002,7.79,21.497,9.663l10.164,2.073c5.973,1.204,10.241,2.731,12.805,4.58
					c2.563,1.851,3.845,4.403,3.845,7.657v0.067c0,2.452-0.736,4.604-2.207,6.452c-1.471,1.851-3.556,3.277-6.252,4.279
					c-2.698,1.004-5.918,1.505-9.663,1.505c-3.656,0-6.932-0.501-9.829-1.505c-2.898-1.002-5.249-2.407-7.055-4.212
					c-1.805-1.806-2.931-3.956-3.376-6.453l-0.134-0.735h-19.057l0.067,1.07c0.356,5.929,2.173,10.999,5.45,15.212
					c3.276,4.212,7.756,7.445,13.439,9.695c5.684,2.251,12.337,3.377,19.96,3.377c8.113,0,15.078-1.237,20.896-3.711
					c5.817-2.475,10.274-5.973,13.373-10.499c3.097-4.523,4.647-9.884,4.647-16.081v-0.067
					C868.425,1728.869,866.073,1722.906,861.371,1718.561z"/>
				<path style="fill:#FFFFFF;" d="M951.467,1731.566c-0.847,3.834-2.296,7.1-4.346,9.796c-2.051,2.698-4.592,4.759-7.623,6.186
					c-3.032,1.427-6.486,2.14-10.364,2.14c-5.127,0-9.596-1.325-13.406-3.978c-3.812-2.652-6.754-6.441-8.826-11.367
					c-2.074-4.925-3.11-10.776-3.11-17.553v-0.067c0-6.731,1.036-12.526,3.11-17.385c2.072-4.859,5.003-8.614,8.793-11.267
					c3.789-2.652,8.269-3.979,13.44-3.979c4.012,0,7.533,0.735,10.565,2.207c3.031,1.471,5.527,3.522,7.489,6.152
					c1.961,2.63,3.32,5.728,4.079,9.294l0.268,1.137h19.726l-0.067-0.669c-0.625-6.82-2.786-12.882-6.486-18.188
					c-3.7-5.304-8.604-9.472-14.711-12.504c-6.108-3.031-13.062-4.547-20.862-4.547c-9.406,0-17.552,1.996-24.44,5.985
					c-6.886,3.99-12.203,9.695-15.947,17.118c-3.745,7.421-5.617,16.326-5.617,26.713v0.067c0,10.387,1.872,19.302,5.617,26.746
					c3.745,7.445,9.061,13.173,15.947,17.185c6.888,4.012,15.034,6.018,24.44,6.018c7.801,0,14.755-1.505,20.862-4.513
					c6.107-3.01,11.021-7.166,14.744-12.471c3.722-5.304,5.895-11.367,6.52-18.188l0.067-0.736h-19.726L951.467,1731.566z"/>
				<path style="fill:#FFFFFF;" d="M1031.233,1668.645h-5.75h-12.103l-33.634,96.488h21.197l7.264-23.403h34.103l7.244,23.403
					h21.263l-33.634-96.488H1031.233z M1012.898,1726.618l12.183-39.25h0.401l12.15,39.25H1012.898z"/>
				<polygon style="fill:#FFFFFF;" points="1147.843,1731.365 1147.4,1731.365 1103.845,1668.645 1086.193,1668.645 
					1086.193,1765.133 1106.319,1765.133 1106.319,1702.011 1106.739,1702.011 1150.451,1765.133 1167.97,1765.133 
					1167.97,1668.645 1147.843,1668.645 				"/>
				<polygon style="fill:#FFFFFF;" points="1273.206,1737.985 1272.805,1737.985 1245.39,1668.645 1222.054,1668.645 
					1222.054,1765.133 1240.041,1765.133 1240.041,1699.938 1240.631,1699.938 1266.654,1765.133 1279.358,1765.133 
					1305.38,1699.938 1305.904,1699.938 1305.904,1765.133 1323.958,1765.133 1323.958,1668.645 1300.555,1668.645 				"/>
				<polygon style="fill:#FFFFFF;" points="1409.407,1685.294 1409.407,1668.645 1345.483,1668.645 1345.483,1765.133 
					1409.407,1765.133 1409.407,1748.483 1365.677,1748.483 1365.677,1724.277 1406.933,1724.277 1406.933,1708.43 
					1365.677,1708.43 1365.677,1685.294 				"/>
			</g>
		</g>
	</g>
</g>
</svg>
