<?xml version="1.0" encoding="utf-8"?>
<!-- Generator: Adobe Illustrator 27.5.0, SVG Export Plug-In . SVG Version: 6.00 Build 0)  -->
<svg version="1.1" xmlns="http://www.w3.org/2000/svg" xmlns:xlink="http://www.w3.org/1999/xlink" x="0px" y="0px"
	 viewBox="0 0 500 500" style="enable-background:new 0 0 500 500;" xml:space="preserve">
<g id="BACKGROUND">
	<rect style="fill:#E7EAF2;" width="500" height="500"/>
</g>
<g id="OBJECTS">
	<g>
		<text transform="matrix(0.9933 -0.1155 0.1155 0.9933 133.5578 202.7671)"><tspan x="0" y="0" style="fill:#60C2AB; font-family:'Lato-Black'; font-size:68.7995px;">re</tspan><tspan x="65.84" y="0" style="fill:#1C316B; font-family:'Lato-Black'; font-size:68.7995px;">duce</tspan></text>
		<text transform="matrix(1 0 0 1 133.529 256.263)"><tspan x="0" y="0" style="fill:#60C2AB; font-family:'Lato-Black'; font-size:68.7995px;">re</tspan><tspan x="65.84" y="0" style="fill:#1C316B; font-family:'Lato-Black'; font-size:68.7995px;">use</tspan></text>
		<text transform="matrix(0.9966 -0.0827 0.0827 0.9966 141.3078 327.065)"><tspan x="0" y="0" style="fill:#60C2AB; font-family:'Lato-Black'; font-size:68.7995px;">re</tspan><tspan x="65.84" y="0" style="fill:#1C316B; font-family:'Lato-Black'; font-size:68.7995px;">cycle</tspan></text>
		<g>
			<g>
				<path style="fill:#60C2AB;" d="M423.33,237.163c-26.068,0.042-47.188,20.113-47.188,44.868c0,0.124,0.001,0.248,0.002,0.371
					c0.116,13.466,11.315,24.285,24.778,23.949c2.091-0.052,4.321,0.055,6.551,0.415c4.462,0.72,7.916,3.337,10.257,6.362
					c1.294,1.671,3.238,2.727,5.352,2.734c0.083,0,0.166,0.001,0.249,0.001c0.083,0,0.166,0,0.249-0.001
					c2.113-0.008,4.058-1.063,5.351-2.734c2.341-3.025,5.795-5.642,10.257-6.362c2.23-0.36,4.46-0.467,6.551-0.415
					c13.463,0.336,24.662-10.483,24.778-23.949c0.001-0.123,0.002-0.247,0.002-0.371
					C470.517,257.276,449.398,237.205,423.33,237.163z"/>
				<polygon style="fill:#1C316B;" points="439.653,292.304 429.214,294.561 441.671,279.042 424.66,294.899 424.556,295.998 
					423.795,279.33 422.594,305.656 405.822,290.021 418.278,305.54 407.84,303.283 421.035,308.975 422.367,310.635 420.047,361.5 
					427.543,361.5 424.744,300.131 426.457,297.996 				"/>
				<g>
					<path style="fill:#1C316B;" d="M409.291,278.675c0,0-1.568-4.481-4.929-6.05c-3.361-1.568-5.602-2.016-5.602-2.016
						S400.553,279.795,409.291,278.675z"/>
					<path style="fill:#1C316B;" d="M413.35,266.764c0,0-0.258-4.741-3.049-7.183c-2.791-2.442-4.818-3.497-4.818-3.497
						S404.646,265.407,413.35,266.764z"/>
					<path style="fill:#1C316B;" d="M450.695,303.065c0,0-3.007-3.674-6.701-3.999c-3.695-0.324-5.953,0.021-5.953,0.021
						S442.867,307.107,450.695,303.065z"/>
					<path style="fill:#1C316B;" d="M392.018,301.943c0,0,3.007-3.674,6.701-3.998c3.695-0.324,5.953,0.021,5.953,0.021
						S399.846,305.984,392.018,301.943z"/>
					<path style="fill:#1C316B;" d="M400.131,262.731c0,0-0.258-4.741-3.049-7.183c-2.791-2.442-4.818-3.497-4.818-3.497
						S391.426,261.374,400.131,262.731z"/>
					<path style="fill:#1C316B;" d="M444.046,265.42c0,0,0.258-4.741,3.049-7.183c2.791-2.443,4.818-3.497,4.818-3.497
						S452.751,264.062,444.046,265.42z"/>
					<path style="fill:#1C316B;" d="M422.183,259.322c0,0,2.738-3.879,2.063-7.526c-0.674-3.647-1.611-5.731-1.611-5.731
						S416.197,252.858,422.183,259.322z"/>
					<path style="fill:#1C316B;" d="M425.232,277.17c0,0,0.445-4.727-1.955-7.555c-2.4-2.828-4.249-4.17-4.249-4.17
						S416.824,274.541,425.232,277.17z"/>
					<path style="fill:#1C316B;" d="M413.955,255.576c0,0,1.418-4.531-0.342-7.796c-1.759-3.265-3.289-4.962-3.289-4.962
						S406.277,251.257,413.955,255.576z"/>
					<path style="fill:#1C316B;" d="M417.54,290.754c0,0,1.418-4.531-0.342-7.796c-1.76-3.265-3.289-4.962-3.289-4.962
						S409.862,286.435,417.54,290.754z"/>
					<path style="fill:#1C316B;" d="M428.161,285.432c0,0,4.01-2.541,4.778-6.17c0.768-3.628,0.697-5.912,0.697-5.912
						S425.093,277.174,428.161,285.432z"/>
					<path style="fill:#1C316B;" d="M428.637,255.576c0,0-1.418-4.531,0.342-7.796c1.759-3.265,3.289-4.962,3.289-4.962
						S436.316,251.257,428.637,255.576z"/>
					<path style="fill:#1C316B;" d="M434.228,266.968c0,0,4-2.557,4.754-6.188c0.754-3.632,0.674-5.915,0.674-5.915
						S431.129,258.721,434.228,266.968z"/>
					<path style="fill:#1C316B;" d="M445.017,279.377c0,0,4.596-1.191,6.438-4.411c1.842-3.219,2.474-5.415,2.474-5.415
						S444.626,270.576,445.017,279.377z"/>
					<path style="fill:#1C316B;" d="M446.049,290.46c0,0,4.311,1.988,7.775,0.663c3.464-1.325,5.344-2.624,5.344-2.624
						S451.319,283.401,446.049,290.46z"/>
					<path style="fill:#1C316B;" d="M452.099,280.378c0,0,4.311,1.988,7.775,0.663c3.464-1.325,5.344-2.624,5.344-2.624
						S457.369,273.318,452.099,280.378z"/>
					<path style="fill:#1C316B;" d="M391.743,286.818c0,0,2.896,3.762,6.58,4.196c3.683,0.434,5.951,0.155,5.951,0.155
						S399.688,283.011,391.743,286.818z"/>
					<path style="fill:#1C316B;" d="M382.333,273.823c0,0,2.896,3.762,6.58,4.196c3.683,0.434,5.951,0.156,5.951,0.156
						S390.277,270.015,382.333,273.823z"/>
				</g>
			</g>
			<g>
				<path style="fill:#60C2AB;" d="M441.874,367.425c-21.425,0.035-38.783,16.531-38.783,36.876c0,0.102,0.001,0.204,0.001,0.305
					c0.095,11.068,9.3,19.959,20.364,19.683c1.719-0.043,3.551,0.045,5.384,0.341c3.667,0.591,6.506,2.742,8.43,5.229
					c1.063,1.374,2.661,2.241,4.398,2.247c0.068,0,0.136,0,0.204,0c0.068,0,0.136,0,0.204,0c1.737-0.006,3.335-0.874,4.398-2.247
					c1.924-2.486,4.763-4.637,8.43-5.229c1.833-0.296,3.666-0.384,5.384-0.341c11.065,0.276,20.269-8.616,20.364-19.683
					c0.001-0.101,0.001-0.203,0.001-0.305C480.657,383.956,463.299,367.46,441.874,367.425z"/>
				<polygon style="fill:#1C316B;" points="455.29,412.745 446.711,414.599 456.948,401.844 442.968,414.877 442.882,415.78 
					442.257,402.081 441.27,423.718 427.485,410.868 437.722,423.623 429.143,421.768 439.988,426.446 441.083,427.81 
					439.176,469.615 445.337,469.615 443.037,419.177 444.445,417.423 				"/>
				<g>
					<path style="fill:#1C316B;" d="M430.336,401.543c0,0-1.289-3.683-4.051-4.972c-2.762-1.289-4.604-1.657-4.604-1.657
						S423.155,402.464,430.336,401.543z"/>
					<path style="fill:#1C316B;" d="M433.672,391.754c0,0-0.212-3.896-2.506-5.904c-2.294-2.007-3.96-2.874-3.96-2.874
						S426.518,390.638,433.672,391.754z"/>
					<path style="fill:#1C316B;" d="M464.365,421.589c0,0-2.471-3.02-5.508-3.286c-3.036-0.266-4.893,0.017-4.893,0.017
						S457.931,424.91,464.365,421.589z"/>
					<path style="fill:#1C316B;" d="M416.14,420.666c0,0,2.471-3.02,5.508-3.286c3.037-0.266,4.893,0.018,4.893,0.018
						S422.574,423.988,416.14,420.666z"/>
					<path style="fill:#1C316B;" d="M422.808,388.439c0,0-0.212-3.896-2.506-5.904c-2.294-2.007-3.96-2.874-3.96-2.874
						S415.654,387.323,422.808,388.439z"/>
					<path style="fill:#1C316B;" d="M458.901,390.649c0,0,0.212-3.896,2.506-5.904c2.294-2.007,3.96-2.874,3.96-2.874
						S466.055,389.533,458.901,390.649z"/>
					<path style="fill:#1C316B;" d="M440.932,385.637c0,0,2.25-3.188,1.696-6.185c-0.554-2.997-1.324-4.711-1.324-4.711
						S436.012,380.324,440.932,385.637z"/>
					<path style="fill:#1C316B;" d="M443.438,400.306c0,0,0.366-3.885-1.607-6.209c-1.972-2.324-3.492-3.427-3.492-3.427
						S436.527,398.146,443.438,400.306z"/>
					<path style="fill:#1C316B;" d="M434.169,382.559c0,0,1.165-3.724-0.281-6.407c-1.446-2.683-2.703-4.078-2.703-4.078
						S427.859,379.009,434.169,382.559z"/>
					<path style="fill:#1C316B;" d="M437.116,411.47c0,0,1.165-3.724-0.281-6.407c-1.446-2.683-2.703-4.078-2.703-4.078
						S430.805,407.92,437.116,411.47z"/>
					<path style="fill:#1C316B;" d="M445.845,407.097c0,0,3.296-2.089,3.927-5.071c0.631-2.982,0.573-4.859,0.573-4.859
						S443.323,400.309,445.845,407.097z"/>
					<path style="fill:#1C316B;" d="M446.236,382.559c0,0-1.165-3.724,0.281-6.407c1.446-2.683,2.703-4.078,2.703-4.078
						S452.547,379.009,446.236,382.559z"/>
					<path style="fill:#1C316B;" d="M450.832,391.921c0,0,3.288-2.101,3.907-5.086c0.619-2.985,0.554-4.861,0.554-4.861
						S448.284,385.143,450.832,391.921z"/>
					<path style="fill:#1C316B;" d="M459.699,402.12c0,0,3.777-0.979,5.291-3.625c1.514-2.646,2.034-4.45,2.034-4.45
						S459.377,394.887,459.699,402.12z"/>
					<path style="fill:#1C316B;" d="M460.547,411.229c0,0,3.543,1.634,6.39,0.545c2.847-1.089,4.392-2.156,4.392-2.156
						S464.878,405.427,460.547,411.229z"/>
					<path style="fill:#1C316B;" d="M465.519,402.942c0,0,3.543,1.634,6.39,0.545c2.847-1.089,4.392-2.156,4.392-2.156
						S469.85,397.14,465.519,402.942z"/>
					<path style="fill:#1C316B;" d="M415.914,408.236c0,0,2.38,3.092,5.408,3.448c3.027,0.356,4.891,0.128,4.891,0.128
						S422.443,405.106,415.914,408.236z"/>
					<path style="fill:#1C316B;" d="M408.18,397.555c0,0,2.38,3.092,5.408,3.448c3.027,0.356,4.891,0.128,4.891,0.128
						S414.709,394.426,408.18,397.555z"/>
				</g>
			</g>
		</g>
		<g>
			<circle style="fill:#FFC100;stroke:#1C316B;stroke-miterlimit:10;" cx="357.738" cy="69.323" r="20.249"/>
			<g>
				<line style="fill:#FFFFFF;stroke:#1C316B;stroke-miterlimit:10;" x1="357.738" y1="28.825" x2="357.738" y2="43.288"/>
				<line style="fill:#FFFFFF;stroke:#1C316B;stroke-miterlimit:10;" x1="357.738" y1="94.635" x2="357.738" y2="109.098"/>
			</g>
			<g>
				<line style="fill:#FFFFFF;stroke:#1C316B;stroke-miterlimit:10;" x1="317.601" y1="68.962" x2="332.065" y2="68.962"/>
				<line style="fill:#FFFFFF;stroke:#1C316B;stroke-miterlimit:10;" x1="383.411" y1="68.962" x2="397.875" y2="68.962"/>
			</g>
			<g>
				<line style="fill:#FFFFFF;stroke:#1C316B;stroke-miterlimit:10;" x1="329.357" y1="97.342" x2="339.585" y2="87.115"/>
				<line style="fill:#FFFFFF;stroke:#1C316B;stroke-miterlimit:10;" x1="375.892" y1="50.808" x2="386.119" y2="40.581"/>
			</g>
			<g>
				<line style="fill:#FFFFFF;stroke:#1C316B;stroke-miterlimit:10;" x1="386.119" y1="97.342" x2="375.892" y2="87.115"/>
				<line style="fill:#FFFFFF;stroke:#1C316B;stroke-miterlimit:10;" x1="339.585" y1="50.808" x2="329.357" y2="40.581"/>
			</g>
		</g>
		<g>
			<g>
				<polygon style="fill:#FFFFFF;stroke:#1C316B;stroke-miterlimit:10;" points="57.322,407.991 25.472,402.473 31.952,341.413 
					71.764,348.312 				"/>
				<polygon style="fill:#FFFFFF;stroke:#1C316B;stroke-miterlimit:10;" points="49.519,406.639 24.605,402.322 31.952,341.413 
					63.094,346.81 				"/>
				
					<rect x="32.543" y="338.844" transform="matrix(0.9853 0.1707 -0.1707 0.9853 59.0307 -3.9631)" style="fill:#FFFFFF;stroke:#1C316B;stroke-miterlimit:10;" width="40.027" height="4.758"/>
				
					<rect x="32.576" y="338.454" transform="matrix(0.9853 0.1707 -0.1707 0.9853 58.9314 -3.5848)" style="fill:#FFFFFF;stroke:#1C316B;stroke-miterlimit:10;" width="35.463" height="4.758"/>
				
					<rect x="28.774" y="342.327" transform="matrix(0.9853 0.1707 -0.1707 0.9853 59.6847 -3.6918)" style="fill:#FFFFFF;stroke:#1C316B;stroke-miterlimit:10;" width="45.066" height="5.663"/>
				
					<rect x="28.835" y="341.619" transform="matrix(0.9853 0.1707 -0.1707 0.9853 59.5039 -3.0048)" style="fill:#FFFFFF;stroke:#1C316B;stroke-miterlimit:10;" width="36.775" height="5.663"/>
				<g>
					<path style="fill:#1C316B;stroke:#1C316B;stroke-miterlimit:10;" d="M61.615,403.288c0.347-2.002-0.153-3.879-1.177-4.968
						l0.108-0.622l-1.769-0.306c-2.07-0.359-4.154,1.7-4.656,4.597c-0.481,2.778,0.669,5.313,2.588,5.834l-0.012,0.06l2.031,0.308
						l0.108-0.622C60.166,406.889,61.268,405.289,61.615,403.288z"/>
					<path style="fill:#1C316B;stroke:#1C316B;stroke-miterlimit:10;" d="M63.384,403.594c-0.502,2.897-2.587,4.956-4.657,4.597
						c-2.07-0.359-3.34-2.998-2.838-5.896c0.502-2.897,2.587-4.956,4.656-4.597C62.615,398.057,63.886,400.697,63.384,403.594z"/>
					<path style="fill:#FFFFFF;stroke:#1C316B;stroke-miterlimit:10;" d="M61.311,403.235c-0.224,1.295-1.156,2.215-2.081,2.054
						c-0.925-0.16-1.493-1.34-1.268-2.635c0.224-1.295,1.156-2.215,2.081-2.054C60.968,400.76,61.536,401.94,61.311,403.235z"/>
				</g>
				<g id="LdiMUf_4_">
					<g>
						<g>
							<path style="fill:#FFC100;" d="M40.194,376.973c-0.099-0.018-0.186-0.033-0.272-0.048c-1.555-0.276-3.11-0.553-4.665-0.827
								c-0.95-0.167-1.609-0.691-1.945-1.597c-0.353-0.95-0.693-1.906-1.038-2.859c-0.008-0.022-0.006-0.048-0.005-0.039
								c2.785,0.494,5.575,0.991,8.367,1.481c0.192,0.034,0.26,0.089,0.221,0.298c-0.209,1.126-0.403,2.255-0.604,3.383
								C40.242,376.827,40.219,376.887,40.194,376.973z"/>
							<path style="fill:#FFC100;" d="M45.21,372.485c-0.087,0.49-0.162,0.912-0.241,1.357c0.116,0.027,0.208,0.052,0.301,0.068
								c1.039,0.185,2.077,0.374,3.118,0.549c0.184,0.031,0.281,0.1,0.344,0.281c0.24,0.695,0.501,1.383,0.746,2.077
								c0.344,0.973-0.318,1.747-1.333,1.566c-1.192-0.212-2.384-0.423-3.576-0.634c-0.08-0.014-0.159-0.028-0.268-0.048
								c-0.079,0.444-0.155,0.873-0.231,1.302c-0.021,0.006-0.042,0.012-0.063,0.018c-0.911-1.271-1.822-2.541-2.754-3.841
								C42.56,374.29,43.857,373.406,45.21,372.485z"/>
							<path style="fill:#FFC100;" d="M38.387,365.03c0.118,1.595,0.234,3.154,0.355,4.775c-0.38-0.316-0.71-0.592-1.063-0.885
								c-0.062,0.066-0.124,0.126-0.179,0.192c-0.689,0.819-1.38,1.636-2.062,2.461c-0.118,0.143-0.228,0.19-0.416,0.153
								c-0.706-0.139-1.413-0.281-2.125-0.376c-1.021-0.136-1.396-1.229-0.718-1.982c0.809-0.898,1.563-1.845,2.341-2.77
								c0.051-0.061,0.1-0.125,0.16-0.2c-0.348-0.295-0.683-0.579-1.059-0.898C35.233,365.34,36.796,365.186,38.387,365.03z"/>
							<path style="fill:#FFC100;" d="M37.355,363.232c0.408-0.487,0.796-0.949,1.184-1.411c0.694-0.826,1.387-1.653,2.084-2.476
								c0.626-0.738,1.422-1.012,2.371-0.847c0.927,0.161,1.853,0.328,2.779,0.492c0.071,0.012,0.141,0.025,0.214,0.038
								c-1.887,2.24-3.761,4.465-5.653,6.71C39.342,364.903,38.363,364.079,37.355,363.232z"/>
							<path style="fill:#FFC100;" d="M49.281,363.731c0.434-0.156,0.84-0.302,1.306-0.47c-0.672,1.483-1.319,2.911-1.976,4.362
								c-1.433-0.691-2.84-1.369-4.313-2.079c0.47-0.173,0.878-0.323,1.307-0.482c-0.151-0.422-0.296-0.827-0.442-1.232
								c-0.253-0.699-0.502-1.4-0.763-2.096c-0.051-0.136-0.028-0.226,0.06-0.33c0.487-0.573,0.962-1.155,1.454-1.724
								c0.677-0.783,1.67-0.598,2.024,0.371c0.412,1.128,0.819,2.259,1.228,3.388C49.198,363.531,49.236,363.62,49.281,363.731z"/>
							<path style="fill:#FFC100;" d="M47.023,368.956c1.233-0.447,2.429-0.881,3.648-1.324c0.038,0.089,0.073,0.159,0.1,0.233
								c0.544,1.497,1.087,2.995,1.631,4.492c0.333,0.915,0.201,1.751-0.425,2.501c-0.623,0.746-1.25,1.489-1.876,2.233
								c-0.035,0.042-0.079,0.077-0.101,0.099C49.011,374.453,48.021,371.717,47.023,368.956z"/>
						</g>
					</g>
				</g>
			</g>
			<g>
				<polygon style="fill:#FFFFFF;stroke:#1C316B;stroke-miterlimit:10;" points="100.879,468.939 56.319,462.801 62.382,377.572 
					118.082,385.244 				"/>
				<polygon style="fill:#FFFFFF;stroke:#1C316B;stroke-miterlimit:10;" points="89.962,467.435 55.106,462.634 62.382,377.572 
					105.953,383.573 				"/>
				
					<rect x="63.178" y="373.002" transform="matrix(0.9906 0.1364 -0.1364 0.9906 52.1978 -8.901)" style="fill:#FFFFFF;stroke:#1C316B;stroke-miterlimit:10;" width="55.7" height="6.622"/>
				
					<rect x="63.208" y="372.568" transform="matrix(0.9906 0.1364 -0.1364 0.9906 52.1099 -8.4758)" style="fill:#FFFFFF;stroke:#1C316B;stroke-miterlimit:10;" width="49.349" height="6.622"/>
				
					<rect x="58.124" y="377.906" transform="matrix(0.9906 0.1364 -0.1364 0.9906 52.9386 -8.638)" style="fill:#FFFFFF;stroke:#1C316B;stroke-miterlimit:10;" width="62.712" height="7.88"/>
				
					<rect x="58.178" y="377.119" transform="matrix(0.9906 0.1364 -0.1364 0.9906 52.7776 -7.8656)" style="fill:#FFFFFF;stroke:#1C316B;stroke-miterlimit:10;" width="51.174" height="7.88"/>
				<g>
					<path style="fill:#1C316B;stroke:#1C316B;stroke-miterlimit:10;" d="M106.623,462.19c0.386-2.8-0.4-5.387-1.877-6.852
						l0.12-0.87l-2.475-0.341c-2.896-0.399-5.696,2.564-6.254,6.618c-0.535,3.886,1.187,7.356,3.881,7.988l-0.014,0.084l2.839,0.331
						l0.12-0.87C104.781,467.268,106.237,464.99,106.623,462.19z"/>
					<path style="fill:#1C316B;stroke:#1C316B;stroke-miterlimit:10;" d="M109.098,462.53c-0.558,4.054-3.358,7.017-6.254,6.618
						c-2.896-0.399-4.79-4.008-4.232-8.062c0.558-4.054,3.358-7.017,6.254-6.618C107.761,454.867,109.656,458.477,109.098,462.53z"
						/>
					<path style="fill:#FFFFFF;stroke:#1C316B;stroke-miterlimit:10;" d="M106.198,462.131c-0.25,1.812-1.501,3.136-2.795,2.958
						c-1.294-0.178-2.141-1.791-1.891-3.603c0.25-1.812,1.501-3.136,2.795-2.958C105.601,458.706,106.447,460.319,106.198,462.131z"
						/>
				</g>
				<g id="LdiMUf_1_">
					<g>
						<g>
							<path style="fill:#FFC100;" d="M75.562,426.627c-0.138-0.02-0.26-0.037-0.381-0.054c-2.176-0.309-4.351-0.62-6.528-0.925
								c-1.33-0.187-2.271-0.883-2.783-2.128c-0.537-1.305-1.056-2.617-1.581-3.926c-0.012-0.03-0.011-0.066-0.009-0.053
								c3.896,0.553,7.801,1.109,11.707,1.656c0.269,0.038,0.366,0.112,0.322,0.404c-0.236,1.577-0.452,3.156-0.677,4.734
								C75.621,426.422,75.592,426.507,75.562,426.627z"/>
							<path style="fill:#FFC100;" d="M82.321,420.143c-0.097,0.686-0.181,1.276-0.269,1.899c0.162,0.031,0.291,0.062,0.422,0.081
								c1.454,0.208,2.907,0.42,4.362,0.614c0.257,0.034,0.396,0.126,0.492,0.374c0.367,0.956,0.763,1.9,1.138,2.852
								c0.526,1.337-0.358,2.445-1.779,2.242c-1.668-0.238-3.336-0.473-5.004-0.709c-0.111-0.016-0.223-0.032-0.375-0.053
								c-0.088,0.621-0.173,1.222-0.259,1.822c-0.029,0.01-0.057,0.019-0.086,0.028c-1.328-1.723-2.657-3.446-4.015-5.208
								C78.723,422.783,80.484,421.491,82.321,420.143z"/>
							<path style="fill:#FFC100;" d="M72.472,410.105c0.242,2.213,0.478,4.375,0.724,6.623c-0.543-0.422-1.016-0.788-1.521-1.18
								c-0.084,0.095-0.167,0.182-0.24,0.276c-0.918,1.172-1.84,2.342-2.748,3.522c-0.157,0.204-0.307,0.275-0.571,0.233
								c-0.988-0.159-1.978-0.323-2.973-0.421c-1.427-0.14-2.001-1.642-1.095-2.722c1.081-1.288,2.085-2.641,3.122-3.966
								c0.069-0.088,0.133-0.178,0.212-0.285c-0.498-0.393-0.977-0.772-1.516-1.198C68.1,410.689,70.266,410.4,72.472,410.105z"/>
							<path style="fill:#FFC100;" d="M70.95,407.654c0.544-0.697,1.061-1.359,1.579-2.02c0.926-1.182,1.849-2.366,2.779-3.544
								c0.834-1.057,1.929-1.476,3.257-1.292c1.297,0.18,2.592,0.367,3.888,0.551c0.099,0.014,0.198,0.028,0.299,0.043
								c-2.516,3.206-5.015,6.391-7.538,9.605C73.794,409.883,72.393,408.785,70.95,407.654z"/>
							<path style="fill:#FFC100;" d="M87.559,407.773c0.596-0.238,1.153-0.461,1.793-0.716c-0.862,2.094-1.693,4.112-2.537,6.161
								c-2.026-0.892-4.016-1.767-6.099-2.684c0.645-0.263,1.205-0.492,1.795-0.733c-0.231-0.579-0.452-1.136-0.675-1.692
								c-0.385-0.96-0.765-1.923-1.163-2.878c-0.078-0.187-0.05-0.313,0.068-0.461c0.649-0.82,1.283-1.653,1.939-2.468
								c0.904-1.121,2.293-0.913,2.832,0.419c0.627,1.549,1.247,3.102,1.871,4.652C87.435,407.499,87.492,407.621,87.559,407.773z"
								/>
							<path style="fill:#FFC100;" d="M84.672,415.148c1.692-0.681,3.335-1.343,5.009-2.017c0.058,0.122,0.109,0.218,0.15,0.318
								c0.829,2.056,1.656,4.113,2.486,6.169c0.507,1.257,0.365,2.425-0.47,3.498c-0.831,1.068-1.666,2.132-2.501,3.196
								c-0.047,0.06-0.106,0.111-0.135,0.142C87.701,422.698,86.193,418.941,84.672,415.148z"/>
						</g>
					</g>
				</g>
			</g>
			<g>
				<polygon style="fill:#FFFFFF;stroke:#1C316B;stroke-miterlimit:10;" points="171.908,477.18 115.738,474.846 113.142,368.086 
					183.354,371.004 				"/>
				<polygon style="fill:#FFFFFF;stroke:#1C316B;stroke-miterlimit:10;" points="158.147,476.608 114.209,474.782 113.142,368.086 
					168.064,370.368 				"/>
				
					<rect x="113.824" y="358.973" transform="matrix(0.9991 0.0415 -0.0415 0.9991 15.2058 -5.8586)" style="fill:#FFFFFF;stroke:#1C316B;stroke-miterlimit:10;" width="69.616" height="8.276"/>
				
					<rect x="113.828" y="358.808" transform="matrix(0.9991 0.0415 -0.0415 0.9991 15.1958 -5.6941)" style="fill:#FFFFFF;stroke:#1C316B;stroke-miterlimit:10;" width="61.677" height="8.276"/>
				
					<rect x="108.174" y="365.255" transform="matrix(0.9991 0.0415 -0.0415 0.9991 15.4984 -5.7999)" style="fill:#FFFFFF;stroke:#1C316B;stroke-miterlimit:10;" width="78.379" height="9.849"/>
				
					<rect x="108.181" y="364.956" transform="matrix(0.9991 0.0415 -0.0415 0.9991 15.4797 -5.5009)" style="fill:#FFFFFF;stroke:#1C316B;stroke-miterlimit:10;" width="63.959" height="9.849"/>
				<g>
					<path style="fill:#1C316B;stroke:#1C316B;stroke-miterlimit:10;" d="M178.251,468.1c0.147-3.53-1.139-6.655-3.15-8.301
						l0.046-1.096l-3.12-0.13c-3.65-0.152-6.781,3.868-6.993,8.978c-0.204,4.899,2.352,9.011,5.779,9.477l-0.007,0.106l3.572,0.073
						l0.046-1.096C176.564,474.638,178.105,471.63,178.251,468.1z"/>
					<path style="fill:#1C316B;stroke:#1C316B;stroke-miterlimit:10;" d="M181.371,468.23c-0.212,5.11-3.344,9.13-6.994,8.978
						c-3.65-0.152-6.437-4.417-6.224-9.527c0.212-5.11,3.344-9.13,6.993-8.978C178.797,458.854,181.583,463.12,181.371,468.23z"/>
					<path style="fill:#FFFFFF;stroke:#1C316B;stroke-miterlimit:10;" d="M177.716,468.078c-0.095,2.284-1.494,4.08-3.125,4.012
						s-2.877-1.974-2.782-4.258c0.095-2.284,1.494-4.08,3.125-4.012C176.565,463.888,177.811,465.794,177.716,468.078z"/>
				</g>
				<g id="LdiMUf_2_">
					<g>
						<g>
							<path style="fill:#FFC100;" d="M135.376,427.55c-0.174-0.008-0.327-0.015-0.48-0.022c-2.744-0.125-5.488-0.253-8.232-0.374
								c-1.677-0.074-2.93-0.829-3.715-2.316c-0.823-1.559-1.625-3.13-2.435-4.696c-0.019-0.036-0.021-0.081-0.018-0.065
								c4.914,0.224,9.838,0.452,14.763,0.668c0.339,0.015,0.469,0.096,0.449,0.464c-0.106,1.99-0.187,3.98-0.279,5.971
								C135.424,427.289,135.398,427.398,135.376,427.55z"/>
							<path style="fill:#FFC100;" d="M143.014,418.679c-0.039,0.865-0.073,1.609-0.109,2.395c0.206,0.02,0.37,0.043,0.534,0.05
								c1.833,0.085,3.666,0.177,5.5,0.244c0.325,0.012,0.508,0.109,0.656,0.407c0.57,1.145,1.175,2.273,1.755,3.414
								c0.813,1.6-0.154,3.084-1.946,3.001c-2.104-0.098-4.207-0.191-6.311-0.287c-0.141-0.006-0.281-0.013-0.473-0.022
								c-0.036,0.784-0.07,1.54-0.105,2.297c-0.035,0.015-0.069,0.03-0.104,0.046c-1.858-1.986-3.715-3.971-5.615-6.002
								C138.851,422.391,140.888,420.574,143.014,418.679z"/>
							<path style="fill:#FFC100;" d="M129.566,407.362c0.564,2.724,1.116,5.387,1.689,8.154c-0.726-0.46-1.358-0.86-2.033-1.287
								c-0.093,0.129-0.186,0.246-0.266,0.371c-1.003,1.568-2.01,3.133-3,4.709c-0.171,0.273-0.35,0.379-0.683,0.358
								c-1.248-0.08-2.499-0.166-3.749-0.169c-1.792-0.005-2.685-1.805-1.686-3.256c1.192-1.731,2.28-3.534,3.412-5.306
								c0.075-0.117,0.144-0.238,0.23-0.38c-0.666-0.43-1.308-0.845-2.028-1.31C124.196,408.608,126.856,407.991,129.566,407.362z"
								/>
							<path style="fill:#FFC100;" d="M127.381,404.494c0.594-0.932,1.159-1.817,1.724-2.701c1.011-1.581,2.019-3.163,3.036-4.74
								c0.912-1.414,2.225-2.066,3.898-1.995c1.635,0.069,3.269,0.148,4.903,0.223c0.125,0.006,0.249,0.011,0.377,0.017
								c-2.749,4.288-5.479,8.548-8.235,12.847C131.184,406.928,129.31,405.728,127.381,404.494z"/>
							<path style="fill:#FFC100;" d="M148.059,402.665c0.713-0.367,1.38-0.711,2.146-1.105c-0.824,2.708-1.617,5.317-2.424,7.968
								c-2.627-0.868-5.207-1.721-7.907-2.613c0.771-0.404,1.441-0.756,2.146-1.126c-0.356-0.693-0.697-1.359-1.04-2.025
								c-0.593-1.149-1.181-2.301-1.789-3.442c-0.119-0.223-0.099-0.383,0.03-0.582c0.71-1.098,1.399-2.21,2.119-3.301
								c0.991-1.502,2.744-1.408,3.574,0.184c0.965,1.853,1.921,3.71,2.882,5.565C147.871,402.339,147.957,402.484,148.059,402.665z
								"/>
							<path style="fill:#FFC100;" d="M145.344,412.185c2.025-1.049,3.99-2.067,5.993-3.105c0.086,0.145,0.162,0.258,0.224,0.378
								c1.276,2.459,2.549,4.92,3.826,7.379c0.781,1.503,0.742,2.974-0.169,4.408c-0.906,1.427-1.82,2.85-2.732,4.274
								c-0.052,0.081-0.119,0.151-0.152,0.193C150.011,421.217,147.688,416.722,145.344,412.185z"/>
						</g>
					</g>
				</g>
			</g>
		</g>
		<g>
			<g>
				<path style="fill:#60C2AB;" d="M334.861,410.401c0,0-1.358-7.337-5.841-10.272c-4.483-2.935-9.509-3.735-9.509-3.735
					s2.581,10.005,5.57,11.606C328.068,409.6,334.861,410.401,334.861,410.401z"/>
				<path style="fill:#60C2AB;" d="M360.299,393.006c0,0,7.247,1.778,11.765-1.102c4.518-2.88,7.315-7.132,7.315-7.132
					s-10.182-1.761-12.87,0.305C363.822,387.143,360.299,393.006,360.299,393.006z"/>
				<path style="fill:#60C2AB;" d="M338.803,409.528c0,0,1.535-5.139-0.332-8.455c-1.867-3.316-4.771-5.437-4.771-5.437
					s-1.634,7.241-0.274,9.223C334.787,406.842,338.803,409.528,338.803,409.528z"/>
				<path style="fill:#60C2AB;" d="M357.622,390.513c0,0,4.74-2.509,5.795-6.165c1.055-3.656,0.531-7.214,0.531-7.214
					s-6.308,3.912-6.768,6.272C356.721,385.766,357.622,390.513,357.622,390.513z"/>
				<path style="fill:#60C2AB;" d="M348.698,372.607c0,0,4.826-5.619,4.336-10.851c-0.49-5.232-2.96-9.541-2.96-9.541
					s-6.133,8.214-5.532,11.48C345.143,366.961,348.698,372.607,348.698,372.607z"/>
				<path style="fill:#1C316B;" d="M319.055,431.682c0,0,7.84-2.24,13.814-5.227c5.974-2.987,19.414-4.48,25.014-2.987
					s10.454,2.987,16.054,5.6c5.6,2.613,12.694,3.734,12.694,3.734h-73.923L319.055,431.682z"/>
				
					<line style="fill:none;stroke:#1C316B;stroke-linecap:round;stroke-linejoin:round;stroke-miterlimit:10;" x1="348.95" y1="425.473" x2="348.95" y2="362.532"/>
				<path style="fill:none;stroke:#1C316B;stroke-linecap:round;stroke-linejoin:round;stroke-miterlimit:10;" d="M349.207,404.94
					c0,0,4.363-9.753,16.169-14.116"/>
				<path style="fill:none;stroke:#1C316B;stroke-linecap:round;stroke-linejoin:round;stroke-miterlimit:10;" d="M348.437,414.693
					c0,0-10.779,0.513-18.222-8.726"/>
				<path style="fill:none;stroke:#1C316B;stroke-linecap:round;stroke-linejoin:round;stroke-miterlimit:10;" d="M341.507,413.41
					c0,0-3.85-4.106-4.106-8.983"/>
				<path style="fill:none;stroke:#1C316B;stroke-linecap:round;stroke-linejoin:round;stroke-miterlimit:10;" d="M355.584,396.585
					c0,0,2.092-7.044,4.659-10.637"/>
				<path style="fill:#60C2AB;" d="M338.063,379.423c0,0-7.247,1.778-11.765-1.102c-4.518-2.88-7.315-7.133-7.315-7.133
					s10.182-1.761,12.87,0.305C334.541,373.561,338.063,379.423,338.063,379.423z"/>
				<path style="fill:#60C2AB;" d="M340.74,376.931c0,0-4.74-2.509-5.795-6.165c-1.055-3.656-0.531-7.214-0.531-7.214
					s6.308,3.912,6.768,6.272C341.641,372.184,340.74,376.931,340.74,376.931z"/>
				<path style="fill:none;stroke:#1C316B;stroke-linecap:round;stroke-linejoin:round;stroke-miterlimit:10;" d="M349.155,391.358
					c0,0-4.363-9.753-16.169-14.116"/>
				<path style="fill:none;stroke:#1C316B;stroke-linecap:round;stroke-linejoin:round;stroke-miterlimit:10;" d="M342.778,383.003
					c0,0-2.093-7.044-4.659-10.637"/>
			</g>
			<g>
				<path style="fill:#60C2AB;" d="M274.372,444.654c0,0-1.359-7.337-5.841-10.272c-4.483-2.935-9.509-3.735-9.509-3.735
					s2.581,10.005,5.57,11.606C267.58,443.853,274.372,444.654,274.372,444.654z"/>
				<path style="fill:#60C2AB;" d="M299.811,427.259c0,0,7.247,1.778,11.765-1.101c4.518-2.88,7.315-7.133,7.315-7.133
					s-10.182-1.761-12.87,0.305C303.333,421.396,299.811,427.259,299.811,427.259z"/>
				<path style="fill:#60C2AB;" d="M278.314,443.78c0,0,1.535-5.139-0.332-8.455c-1.867-3.316-4.771-5.437-4.771-5.437
					s-1.634,7.241-0.274,9.223C274.298,441.094,278.314,443.78,278.314,443.78z"/>
				<path style="fill:#60C2AB;" d="M297.134,424.766c0,0,4.74-2.509,5.795-6.165c1.055-3.656,0.531-7.214,0.531-7.214
					s-6.308,3.912-6.768,6.272C296.233,420.019,297.134,424.766,297.134,424.766z"/>
				<path style="fill:#60C2AB;" d="M288.209,406.86c0,0,4.826-5.619,4.336-10.851c-0.49-5.232-2.96-9.541-2.96-9.541
					s-6.133,8.214-5.532,11.48C284.654,401.213,288.209,406.86,288.209,406.86z"/>
				<path style="fill:#1C316B;" d="M258.566,465.935c0,0,7.84-2.24,13.814-5.227c5.974-2.987,19.414-4.48,25.014-2.987
					c5.6,1.493,10.454,2.987,16.054,5.6c5.6,2.613,12.694,3.734,12.694,3.734h-73.923L258.566,465.935z"/>
				
					<line style="fill:none;stroke:#1C316B;stroke-linecap:round;stroke-linejoin:round;stroke-miterlimit:10;" x1="288.462" y1="459.725" x2="288.462" y2="396.785"/>
				<path style="fill:none;stroke:#1C316B;stroke-linecap:round;stroke-linejoin:round;stroke-miterlimit:10;" d="M288.718,439.193
					c0,0,4.363-9.753,16.169-14.116"/>
				<path style="fill:none;stroke:#1C316B;stroke-linecap:round;stroke-linejoin:round;stroke-miterlimit:10;" d="M287.948,448.946
					c0,0-10.779,0.513-18.222-8.726"/>
				<path style="fill:none;stroke:#1C316B;stroke-linecap:round;stroke-linejoin:round;stroke-miterlimit:10;" d="M281.019,447.662
					c0,0-3.85-4.106-4.107-8.983"/>
				<path style="fill:none;stroke:#1C316B;stroke-linecap:round;stroke-linejoin:round;stroke-miterlimit:10;" d="M295.095,430.838
					c0,0,2.093-7.044,4.659-10.637"/>
				<path style="fill:#60C2AB;" d="M277.574,413.676c0,0-7.247,1.778-11.765-1.101c-4.518-2.88-7.315-7.133-7.315-7.133
					s10.182-1.761,12.87,0.305C274.052,407.813,277.574,413.676,277.574,413.676z"/>
				<path style="fill:#60C2AB;" d="M280.251,411.183c0,0-4.74-2.509-5.795-6.165c-1.055-3.656-0.531-7.214-0.531-7.214
					s6.308,3.912,6.768,6.272C281.152,406.436,280.251,411.183,280.251,411.183z"/>
				<path style="fill:none;stroke:#1C316B;stroke-linecap:round;stroke-linejoin:round;stroke-miterlimit:10;" d="M288.667,425.61
					c0,0-4.363-9.753-16.169-14.116"/>
				<path style="fill:none;stroke:#1C316B;stroke-linecap:round;stroke-linejoin:round;stroke-miterlimit:10;" d="M282.29,417.255
					c0,0-2.092-7.044-4.659-10.637"/>
			</g>
		</g>
		<g>
			
				<ellipse transform="matrix(0.9725 -0.2328 0.2328 0.9725 -60.9569 24.2712)" style="fill:#FFFFFF;stroke:#1C316B;stroke-miterlimit:10;" cx="72.365" cy="270.427" rx="48.453" ry="48.453"/>
			<path style="fill:#60C2AB;" d="M52.711,227.636l5.054-0.778h3.888h3.499h3.888l4.665-0.778l5.054-1.166
				c0,0,2.722,1.166,4.277,3.499v3.11c0,0,3.11,1.944,3.888,3.11c0.778,1.166-2.333,3.888-2.333,3.888s-3.888,1.555-5.832,1.555
				s-7.776,7.776-7.776,7.776l5.054,4.277c1.166,0.777,1.944,3.11,0.777,3.499c-1.166,0.389-8.165-1.944-8.165-1.944
				s0,0-1.944,1.555c-1.944,1.555-2.722,10.497-2.722,10.497l1.555,10.109l0,0c0,0,0,0,2.333,0.778l6.221,1.166
				c1.166-0.389,3.11-0.389,4.665-0.389c1.555,0,6.221,3.11,6.221,3.11s2.333,0,4.277,0c1.944,0,1.944,0,9.331-0.389
				c7.387-0.389,3.499,0,7.387,0s1.555,6.61,1.555,6.61l-1.166,8.165c0,0-3.888,8.942-5.832,10.886
				c-1.944,1.944-7.776,7.776-11.275,6.609c-1.986-0.662,0.778-1.555,0.389-4.277c-0.389-2.721-9.331-4.277-9.331-4.277l-3.11-3.888
				c0,0-1.555-3.499-1.944-5.832c-0.389-2.333,2.722-5.832,2.722-5.832s1.944-3.888,0.389-6.221
				c-1.555-2.333-6.221-0.778-6.221-0.778l-3.888-0.389c0,0-3.888-0.389-5.443-0.389c-1.555,0-3.888-0.777-4.277-2.333
				c-0.389-1.555-5.054-5.832-10.109-8.553c0,0-1.944-3.888-3.11-7.387c-1.166-3.499-2.722-5.054-4.277-5.443
				c-1.555-0.389-0.778,2.721-0.778,5.832c0,3.11,1.166,3.888-1.166,5.832c-2.333,1.944-1.944-2.333-3.499-5.054
				c-1.555-2.721-1.555-4.277-0.778-9.72c0.778-5.443,1.944-11.664,1.944-11.664S40.269,233.857,52.711,227.636z"/>
			<path style="fill:#60C2AB;" d="M88.868,264.571c0,0-7.776,0.389-11.275-0.778c-3.499-1.166-6.609,2.721-6.609,2.721
				s3.499-0.389,6.221,0.389c2.722,0.778,5.832,0.778,5.832,0.778s-0.389-0.389,3.888,0.389c4.277,0.778,5.054,2.721,5.832,1.166
				C93.534,267.682,88.868,264.571,88.868,264.571z"/>
			<path style="fill:#60C2AB;" d="M102.836,235.553l-0.749,1.415c0,0-4.277,5.832-4.277,6.998c0,1.166,3.888,5.832,4.665,6.998
				c0.777,1.166,2.333,3.11,2.333,3.11s1.555,1.166,2.722,1.166l3.11,1.555l1.555,2.721l4.277,6.221l-0.778,2.721l-1.944,3.499
				l0.389,5.443c0,0-0.389,2.333,0,3.499c0.389,1.166,0.389,3.11,0.389,3.11l0.389,3.11c0,0,1.165-2.837,2.652-6.531
				c0.596-3.037,0.917-6.174,0.917-9.385C118.486,257.1,112.455,244.407,102.836,235.553z"/>
		</g>
		<g>
			<g>
				<path style="fill:none;stroke:#1C316B;stroke-width:1.5;stroke-linecap:round;stroke-linejoin:round;stroke-miterlimit:10;" d="
					M175.551,76.29c-27.827,4.431-51.935,23.052-62.892,49.896"/>
				<g>
					<path style="fill:#1C316B;" d="M135.455,110.922c-5.775-5.525-16.109,2.2-15.981,2.508c-0.773,1.134-1.521,2.292-2.241,3.473
						c1.441-1.148,5.948-1.532,11.715,0.201C134.727,118.613,141.151,115.982,135.455,110.922z"/>
					<path style="fill:#1C316B;" d="M118.061,95.753c-5.858-5.216-9.639,4.913-5.938,10.03c3.457,5.134,5.226,9.244,5.011,11.063
						c0.64-1.229,1.309-2.438,2.007-3.627C118.837,113.157,123.423,100.896,118.061,95.753z"/>
				</g>
				<g>
					<path style="fill:#1C316B;" d="M143.974,102.68c-4.772-6.403-16.166-0.625-16.087-0.316c-0.942,0.971-1.861,1.968-2.758,2.991
						c1.598-0.863,6.079-0.444,11.453,2.257C142.004,110.101,148.737,108.628,143.974,102.68z"/>
					<path style="fill:#1C316B;" d="M129.376,84.804c-4.901-6.12-10.263,3.162-7.46,8.802c2.558,5.623,3.628,9.943,3.124,11.675
						c0.825-1.083,1.677-2.144,2.554-3.183C127.302,102,133.796,90.786,129.376,84.804z"/>
				</g>
				<g>
					<path style="fill:#1C316B;" d="M153.71,96.009c-3.641-7.103-15.8-3.34-15.767-3.031c-1.084,0.794-2.15,1.615-3.197,2.464
						c1.709-0.571,6.04,0.607,10.878,4.176C150.539,102.992,157.409,102.672,153.71,96.009z"/>
					<path style="fill:#1C316B;" d="M142.308,75.944c-3.812-6.85-10.625,1.391-8.794,7.409c1.59,5.965,1.933,10.39,1.156,12.003
						c0.987-0.92,1.997-1.816,3.028-2.687C137.422,92.531,145.658,82.588,142.308,75.944z"/>
				</g>
				<g>
					<path style="fill:#1C316B;" d="M164.441,91.051c-2.408-7.612-15.046-5.922-15.056-5.615c-1.201,0.601-2.387,1.232-3.558,1.892
						c1.776-0.275,5.846,1.611,10.019,5.938C160.125,97.415,166.968,98.241,164.441,91.051z"/>
					<path style="fill:#1C316B;" d="M156.564,69.358c-2.616-7.392-10.74-0.392-9.935,5.847c0.569,6.148,0.171,10.568-0.861,12.026
						c1.124-0.741,2.267-1.455,3.429-2.141C148.938,84.911,158.741,76.472,156.564,69.358z"/>
				</g>
				<g>
					<path style="fill:#1C316B;" d="M175.948,87.946c-1.097-7.913-13.941-8.349-13.991-8.046c-1.291,0.394-2.572,0.819-3.842,1.276
						c1.802,0.024,5.511,2.561,8.91,7.523C170.554,93.503,177.219,95.458,175.948,87.946z"/>
					<path style="fill:#1C316B;" d="M171.848,65.233c-1.336-7.73-10.621-2.178-10.879,4.113c-0.485,6.161-1.629,10.457-2.896,11.724
						c1.237-0.544,2.489-1.059,3.756-1.543C161.59,79.306,172.775,72.61,171.848,65.233z"/>
				</g>
				<path style="fill:#1C316B;stroke:#1C316B;stroke-linecap:round;stroke-linejoin:round;stroke-miterlimit:10;" d="
					M169.442,77.472c-0.176-0.119,9.959-5.924,16.329-6.494c6.24-0.743,8.276,3.765,7.076,6.233
					c-1.165,2.501-5.534,2.84-9.179,2.359C180.104,78.806,169.508,77.289,169.442,77.472z"/>
			</g>
			<g>
				<path style="fill:none;stroke:#1C316B;stroke-width:1.5;stroke-linecap:round;stroke-linejoin:round;stroke-miterlimit:10;" d="
					M126.451,35.219c-26.335,18.792-41.588,50.266-39.116,83.464"/>
				<g>
					<path style="fill:#1C316B;" d="M102.958,91.33c-8.763-2.724-15.432,10.503-15.143,10.754c-0.215,1.561-0.391,3.133-0.527,4.715
						c0.893-1.918,5.33-4.618,12.144-5.787C106.145,99.607,111.402,93.617,102.958,91.33z"/>
					<path style="fill:#1C316B;" d="M77.317,84.637c-8.69-2.364-7.394,9.981-0.972,13.348c6.18,3.509,10.101,6.828,10.811,8.807
						c0.029-1.59,0.098-3.175,0.207-4.755C87.02,102.13,85.461,87.18,77.317,84.637z"/>
				</g>
				<g>
					<path style="fill:#1C316B;" d="M107.497,78.499c-8.18-4.14-16.936,7.628-16.696,7.906c-0.471,1.48-0.906,2.975-1.305,4.485
						c1.201-1.704,6.021-3.566,12.927-3.54C109.269,87.136,115.436,82.176,107.497,78.499z"/>
					<path style="fill:#1C316B;" d="M83.346,67.594c-8.169-3.783-8.931,8.501-3.164,12.864c5.507,4.471,8.816,8.364,9.185,10.402
						c0.294-1.535,0.627-3.062,0.997-4.578C90.013,86.331,90.95,71.482,83.346,67.594z"/>
				</g>
				<g>
					<path style="fill:#1C316B;" d="M114.091,66.662c-7.377-5.438-17.949,4.651-17.756,4.951c-0.708,1.37-1.384,2.76-2.026,4.168
						c1.464-1.461,6.519-2.467,13.317-1.273C114.404,75.461,121.302,71.618,114.091,66.662z"/>
					<path style="fill:#1C316B;" d="M92.106,51.871c-7.423-5.09-10.209,6.866-5.248,12.114c4.686,5.318,7.303,9.691,7.329,11.746
						c0.543-1.451,1.123-2.889,1.737-4.311C95.57,71.42,98.948,56.986,92.106,51.871z"/>
				</g>
				<g>
					<path style="fill:#1C316B;" d="M122.585,56.075c-6.369-6.592-18.495,1.611-18.348,1.932c-0.926,1.232-1.823,2.487-2.689,3.765
						c1.685-1.192,6.834-1.335,13.337,0.977C121.404,64.825,128.861,62.172,122.585,56.075z"/>
					<path style="fill:#1C316B;" d="M103.389,37.808c-6.47-6.26-11.24,5.092-7.22,11.092c3.73,6.028,5.582,10.775,5.267,12.802
						c0.776-1.337,1.586-2.655,2.429-3.955C103.508,57.696,109.267,44.007,103.389,37.808z"/>
				</g>
				<g>
					<path style="fill:#1C316B;" d="M132.823,46.996c-5.176-7.573-18.601-1.449-18.497-1.112c-1.126,1.065-2.224,2.158-3.295,3.277
						c1.864-0.898,6.974-0.188,13.007,3.174C130.122,55.468,137.973,54.067,132.823,46.996z"/>
					<path style="fill:#1C316B;" d="M116.988,25.748c-5.327-7.262-12.032,3.195-9.077,9.794c2.653,6.581,3.675,11.581,3.021,13.532
						c0.993-1.192,2.016-2.362,3.071-3.508C113.645,45.461,121.716,32.857,116.988,25.748z"/>
				</g>
				<path style="fill:#1C316B;stroke:#1C316B;stroke-linecap:round;stroke-linejoin:round;stroke-miterlimit:10;" d="
					M120.778,39.559c-0.242-0.032,7.206-11.184,13.462-15.029c6.034-3.957,10.432-0.365,10.462,2.786
					c0.082,3.167-4.235,5.75-8.228,7.121C132.419,35.475,120.752,39.338,120.778,39.559z"/>
			</g>
		</g>
		<g>
			<path style="fill:none;stroke:#1C316B;stroke-linecap:round;stroke-linejoin:round;stroke-miterlimit:10;" d="M293.763,53.76
				c0,0-6.069-7.687-11.733-7.687c-5.664,0-6.473,6.473-8.091,7.282c-1.618,0.809-8.496-3.641-11.328-2.427
				c-2.832,1.214-3.641,5.664-3.641,5.664s-5.26-2.832-7.687-1.618c-2.427,1.214-4.855,4.855-4.855,4.855l-6.473,2.832h67.968
				c0,0,0-7.687-4.45-8.901C299.023,52.546,298.214,59.019,293.763,53.76z"/>
			<path style="fill:none;stroke:#1C316B;stroke-linecap:round;stroke-linejoin:round;stroke-miterlimit:10;" d="M443.417,35.686
				c0,0-4.381-5.549-8.47-5.549c-4.089,0-4.673,4.673-5.841,5.257c-1.168,0.584-6.133-2.629-8.178-1.752
				c-2.044,0.876-2.629,4.089-2.629,4.089s-3.797-2.044-5.549-1.168c-1.752,0.876-3.505,3.505-3.505,3.505l-4.673,2.044h49.066
				c0,0,0-5.549-3.213-6.425C447.213,34.81,446.629,39.483,443.417,35.686z"/>
			<path style="fill:none;stroke:#1C316B;stroke-linecap:round;stroke-linejoin:round;stroke-miterlimit:10;" d="M274.23,98.184
				c0,0-10.162-12.871-19.646-12.871c-9.484,0-10.839,10.839-13.549,12.194c-2.71,1.355-14.226-6.097-18.968-4.064
				c-4.742,2.032-6.097,9.484-6.097,9.484s-8.807-4.742-12.871-2.71c-4.065,2.032-8.129,8.129-8.129,8.129l-10.839,4.742h113.81
				c0,0,0-12.871-7.452-14.904C283.037,96.152,281.682,106.991,274.23,98.184z"/>
		</g>
		<g>
			<path style="fill:none;stroke:#1C316B;stroke-width:2;stroke-linecap:round;stroke-linejoin:round;stroke-miterlimit:10;" d="
				M40.47,153.101c0,0,16.489-30.135,29.567-27.861c13.078,2.274-11.94,34.684-11.94,34.684"/>
			<polygon style="fill:#FFFFFF;stroke:#1C316B;stroke-miterlimit:10;" points="17.158,149.121 70.605,149.121 65.488,207.686 
				22.275,207.686 			"/>
			<path style="fill:none;stroke:#1C316B;stroke-width:2;stroke-linecap:round;stroke-linejoin:round;stroke-miterlimit:10;" d="
				M28.53,156.513c0,0,6.823-38.664,19.332-42.076c12.509-3.412,10.803,31.272,6.823,41.507"/>
			<g id="LdiMUf_3_">
				<g>
					<g>
						<path style="fill:#FFC100;" d="M42.977,190.165c-0.137,0.002-0.258,0.005-0.378,0.007c-2.16,0.038-4.319,0.074-6.479,0.116
							c-1.319,0.025-2.341-0.505-3.031-1.633c-0.724-1.183-1.431-2.376-2.144-3.565c-0.017-0.027-0.021-0.062-0.017-0.05
							c3.868-0.068,7.744-0.135,11.62-0.211c0.267-0.005,0.373,0.052,0.376,0.342c0.016,1.567,0.051,3.133,0.078,4.7
							C43.002,189.958,42.987,190.045,42.977,190.165z"/>
						<path style="fill:#FFC100;" d="M48.53,182.823c0.012,0.681,0.022,1.266,0.033,1.885c0.163,0.005,0.292,0.015,0.422,0.013
							c1.443-0.024,2.886-0.044,4.329-0.082c0.255-0.007,0.404,0.06,0.535,0.287c0.504,0.87,1.035,1.725,1.547,2.592
							c0.718,1.216,0.033,2.429-1.378,2.452c-1.656,0.028-3.311,0.059-4.967,0.089c-0.111,0.002-0.221,0.004-0.372,0.007
							c0.011,0.617,0.021,1.212,0.032,1.808c-0.026,0.014-0.053,0.027-0.079,0.041c-1.557-1.466-3.114-2.932-4.706-4.432
							C45.447,185.943,46.956,184.416,48.53,182.823z"/>
						<path style="fill:#FFC100;" d="M37.412,174.61c0.578,2.11,1.144,4.172,1.731,6.315c-0.593-0.325-1.109-0.607-1.659-0.909
							c-0.066,0.106-0.133,0.202-0.19,0.305c-0.709,1.28-1.422,2.559-2.121,3.845c-0.121,0.223-0.256,0.315-0.518,0.315
							c-0.984-0.001-1.97-0.006-2.951,0.054c-1.406,0.085-2.197-1.283-1.485-2.472c0.849-1.418,1.614-2.887,2.414-4.334
							c0.053-0.096,0.101-0.194,0.162-0.31c-0.544-0.305-1.068-0.598-1.657-0.927C33.26,175.855,35.317,175.238,37.412,174.61z"/>
						<path style="fill:#FFC100;" d="M35.555,172.468c0.42-0.761,0.819-1.483,1.219-2.206c0.715-1.291,1.427-2.583,2.147-3.871
							c0.646-1.155,1.643-1.732,2.96-1.76c1.286-0.027,2.573-0.047,3.859-0.069c0.098-0.002,0.196-0.003,0.297-0.005
							c-1.944,3.502-3.875,6.981-5.824,10.492C38.661,174.189,37.131,173.341,35.555,172.468z"/>
						<path style="fill:#FFC100;" d="M51.693,170.004c0.542-0.324,1.048-0.626,1.629-0.974c-0.512,2.166-1.005,4.253-1.506,6.374
							c-2.105-0.551-4.172-1.092-6.336-1.658c0.585-0.356,1.093-0.665,1.628-0.99c-0.314-0.526-0.615-1.032-0.917-1.537
							c-0.523-0.872-1.041-1.747-1.575-2.612c-0.104-0.169-0.097-0.296-0.006-0.458c0.503-0.897,0.988-1.804,1.499-2.696
							c0.703-1.228,2.084-1.242,2.814-0.033c0.849,1.406,1.692,2.816,2.539,4.224C51.529,169.757,51.604,169.867,51.693,170.004z"/>
						<path style="fill:#FFC100;" d="M50.035,177.611c1.537-0.924,3.028-1.821,4.549-2.735c0.075,0.109,0.14,0.194,0.195,0.286
							c1.124,1.867,2.246,3.735,3.37,5.601c0.687,1.141,0.73,2.297,0.087,3.468c-0.64,1.165-1.286,2.328-1.931,3.491
							c-0.037,0.066-0.086,0.125-0.11,0.159C54.148,184.467,52.101,181.055,50.035,177.611z"/>
					</g>
				</g>
			</g>
		</g>
		<g>
			<g>
				<polygon style="fill:#FFFFFF;stroke:#1C316B;stroke-miterlimit:10;" points="384.025,223.458 380.118,223.458 380.821,159.842 
					383.321,159.842 				"/>
				<rect x="378.185" y="221.526" style="fill:#FFFFFF;stroke:#1C316B;stroke-miterlimit:10;" width="8.085" height="3.773"/>
				<g>
					<path style="fill:#FFFFFF;stroke:#1C316B;stroke-miterlimit:10;" d="M380.547,157.771c0,0-5.194-22.904-3.934-22.7
						c1.261,0.204,8.086,17.17,7.922,18.594c-0.163,1.424-2.483,3.904-2.483,3.904L380.547,157.771z"/>
					<path style="fill:#FFFFFF;stroke:#1C316B;stroke-miterlimit:10;" d="M382.865,156.896c0,0,22.904-5.194,22.7-3.933
						c-0.204,1.261-17.17,8.085-18.594,7.922c-1.424-0.163-3.904-2.483-3.904-2.483L382.865,156.896z"/>
					<path style="fill:#FFFFFF;stroke:#1C316B;stroke-miterlimit:10;" d="M380.919,157.381c0,0-22.66,6.171-21.888,7.188
						c0.772,1.017,18.956-0.925,20.136-1.738c1.18-0.813,2.28-4.026,2.28-4.026L380.919,157.381z"/>
					<path style="fill:#1C316B;stroke:#1C316B;stroke-miterlimit:10;" d="M384.571,158.184c-0.344-1.381-1.743-2.221-3.123-1.876
						c-1.38,0.344-2.221,1.743-1.876,3.123s1.743,2.221,3.123,1.876C384.076,160.962,384.915,159.564,384.571,158.184z"/>
				</g>
			</g>
			<g>
				<polygon style="fill:#FFFFFF;stroke:#1C316B;stroke-miterlimit:10;" points="413.091,222.835 407.862,222.835 408.803,137.671 
					412.15,137.671 				"/>
				<rect x="405.274" y="220.248" style="fill:#FFFFFF;stroke:#1C316B;stroke-miterlimit:10;" width="10.824" height="5.051"/>
				<g>
					<path style="fill:#FFFFFF;stroke:#1C316B;stroke-miterlimit:10;" d="M408.436,134.899c0,0-6.954-30.662-5.266-30.389
						c1.688,0.273,10.824,22.986,10.605,24.891c-0.219,1.906-3.324,5.226-3.324,5.226L408.436,134.899z"/>
					<path style="fill:#FFFFFF;stroke:#1C316B;stroke-miterlimit:10;" d="M411.538,133.727c0,0,30.662-6.954,30.388-5.266
						c-0.273,1.688-22.986,10.824-24.891,10.605c-1.906-0.219-5.226-3.324-5.226-3.324L411.538,133.727z"/>
					<path style="fill:#FFFFFF;stroke:#1C316B;stroke-miterlimit:10;" d="M408.935,134.377c0,0-30.336,8.261-29.302,9.623
						c1.034,1.362,25.376-1.239,26.956-2.327c1.58-1.088,3.052-5.389,3.052-5.389L408.935,134.377z"/>
					<path style="fill:#1C316B;stroke:#1C316B;stroke-miterlimit:10;" d="M413.823,135.451c-0.461-1.848-2.333-2.973-4.181-2.512
						s-2.973,2.333-2.512,4.181s2.333,2.973,4.181,2.512C413.16,139.171,414.284,137.299,413.823,135.451z"/>
				</g>
			</g>
			<g>
				<polygon style="fill:#FFFFFF;stroke:#1C316B;stroke-miterlimit:10;" points="443.222,221.913 436.037,221.913 437.33,104.905 
					441.929,104.905 				"/>
				<rect x="432.481" y="218.359" style="fill:#FFFFFF;stroke:#1C316B;stroke-miterlimit:10;" width="14.872" height="6.94"/>
				<g>
					<path style="fill:#FFFFFF;stroke:#1C316B;stroke-miterlimit:10;" d="M436.825,101.096c0,0-9.554-42.127-7.235-41.751
						c2.319,0.375,14.872,31.58,14.571,34.199c-0.301,2.618-4.568,7.18-4.568,7.18L436.825,101.096z"/>
					<path style="fill:#FFFFFF;stroke:#1C316B;stroke-miterlimit:10;" d="M441.088,99.486c0,0,42.127-9.554,41.751-7.235
						c-0.375,2.319-31.58,14.871-34.199,14.571c-2.618-0.301-7.18-4.568-7.18-4.568L441.088,99.486z"/>
					<path style="fill:#FFFFFF;stroke:#1C316B;stroke-miterlimit:10;" d="M437.511,100.379c0,0-41.679,11.35-40.258,13.221
						c1.421,1.871,34.865-1.702,37.036-3.197c2.171-1.495,4.194-7.405,4.194-7.405L437.511,100.379z"/>
					<path style="fill:#1C316B;stroke:#1C316B;stroke-miterlimit:10;" d="M444.227,101.854c-0.633-2.539-3.205-4.084-5.745-3.451
						s-4.084,3.205-3.451,5.745c0.633,2.539,3.205,4.084,5.745,3.451C443.316,106.965,444.861,104.394,444.227,101.854z"/>
				</g>
			</g>
			<line style="fill:none;stroke:#1C316B;stroke-miterlimit:10;" x1="474.867" y1="225.299" x2="356.308" y2="225.299"/>
		</g>
		<g>
			<g>
				<g>
					<g>
						<path style="fill:#60C2AB;" d="M101.727,163.968c0,1.854-1.343,8.927-3,8.927c-1.657,0-3-7.074-3-8.927
							c0-1.854,1.343-3.357,3-3.357C100.384,160.612,101.727,162.115,101.727,163.968z"/>
						<path style="fill:#60C2AB;" d="M92.929,165.316c1.449,1.156,6.142,6.616,5.109,7.911c-1.033,1.295-7.401-2.065-8.85-3.221
							c-1.449-1.156-1.787-3.143-0.754-4.438C89.467,164.273,91.48,164.16,92.929,165.316z"/>
						<path style="fill:#60C2AB;" d="M88.498,173.034c1.807-0.412,9.002-0.677,9.371,0.938c0.369,1.615-6.229,4.498-8.036,4.911
							c-1.807,0.413-3.571-0.562-3.94-2.177C85.524,175.091,86.69,173.447,88.498,173.034z"/>
						<path style="fill:#60C2AB;" d="M91.769,181.311c0.804-1.67,5.083-7.461,6.576-6.742c1.493,0.719-0.367,7.674-1.171,9.345
							c-0.804,1.67-2.666,2.442-4.159,1.723C91.523,184.919,90.965,182.982,91.769,181.311z"/>
						<path style="fill:#60C2AB;" d="M100.28,183.914c-0.804-1.67-2.663-8.626-1.171-9.345s5.772,5.072,6.576,6.742
							c0.804,1.67,0.246,3.607-1.246,4.326C102.946,186.356,101.084,185.585,100.28,183.914z"/>
						<path style="fill:#60C2AB;" d="M107.622,178.883c-1.807-0.413-8.405-3.296-8.036-4.911c0.369-1.615,7.564-1.35,9.371-0.938
							c1.807,0.413,2.974,2.056,2.605,3.671C111.193,178.321,109.429,179.296,107.622,178.883z"/>
						<path style="fill:#60C2AB;" d="M108.265,170.006c-1.449,1.156-7.817,4.516-8.85,3.221c-1.033-1.295,3.66-6.755,5.109-7.911
							c1.449-1.156,3.462-1.043,4.495,0.252C110.053,166.863,109.715,168.85,108.265,170.006z"/>
					</g>
				</g>
				<path style="fill:#FFC100;" d="M103.485,173.776c0-2.628-2.13-4.758-4.758-4.758c-2.627,0-4.757,2.13-4.757,4.758
					c0,2.627,2.13,4.758,4.757,4.758C101.355,178.534,103.485,176.404,103.485,173.776z"/>
			</g>
			<g>
				<g>
					<g>
						<path style="fill:#60C2AB;" d="M228.146,364.996c0,2.75-1.992,13.241-4.449,13.241c-2.457,0-4.449-10.491-4.449-13.241
							s1.992-4.979,4.449-4.979C226.154,360.017,228.146,362.246,228.146,364.996z"/>
						<path style="fill:#60C2AB;" d="M215.098,366.995c2.15,1.714,9.11,9.813,7.578,11.734c-1.532,1.921-10.976-3.063-13.126-4.777
							c-2.15-1.714-2.651-4.661-1.119-6.582C209.964,365.448,212.948,365.28,215.098,366.995z"/>
						<path style="fill:#60C2AB;" d="M208.525,378.443c2.681-0.612,13.352-1.004,13.899,1.391c0.547,2.395-9.238,6.672-11.919,7.284
							c-2.681,0.612-5.297-0.834-5.844-3.229C204.114,381.492,205.844,379.055,208.525,378.443z"/>
						<path style="fill:#60C2AB;" d="M213.377,390.719c1.193-2.477,7.54-11.066,9.753-9.999c2.214,1.066-0.544,11.383-1.737,13.86
							c-1.193,2.477-3.955,3.621-6.169,2.555C213.012,396.069,212.184,393.197,213.377,390.719z"/>
						<path style="fill:#60C2AB;" d="M226.001,394.58c-1.193-2.477-3.951-12.794-1.737-13.86c2.214-1.066,8.56,7.522,9.753,9.999
							c1.193,2.477,0.366,5.35-1.848,6.416C229.955,398.201,227.194,397.057,226.001,394.58z"/>
						<path style="fill:#60C2AB;" d="M236.889,387.117c-2.681-0.612-12.466-4.888-11.919-7.284
							c0.547-2.396,11.218-2.003,13.899-1.391c2.681,0.612,4.411,3.05,3.864,5.445C242.186,386.283,239.57,387.729,236.889,387.117z
							"/>
						<path style="fill:#60C2AB;" d="M237.844,373.952c-2.15,1.714-11.594,6.698-13.126,4.777
							c-1.532-1.921,5.429-10.02,7.578-11.734c2.15-1.714,5.134-1.547,6.666,0.374C240.495,369.29,239.994,372.237,237.844,373.952z
							"/>
					</g>
				</g>
				<circle style="fill:#FFC100;" cx="223.697" cy="379.543" r="7.056"/>
			</g>
			<g>
				<g>
					<g>
						<path style="fill:#60C2AB;" d="M341.701,198.846c0,1.854-1.343,8.927-3,8.927c-1.657,0-3-7.074-3-8.927
							c0-1.854,1.343-3.357,3-3.357C340.358,195.489,341.701,196.992,341.701,198.846z"/>
						<path style="fill:#60C2AB;" d="M332.903,200.193c1.449,1.156,6.142,6.616,5.109,7.911c-1.033,1.295-7.401-2.065-8.85-3.221
							c-1.449-1.156-1.787-3.143-0.754-4.438C329.441,199.15,331.454,199.037,332.903,200.193z"/>
						<path style="fill:#60C2AB;" d="M328.472,207.912c1.807-0.413,9.002-0.677,9.371,0.938c0.369,1.615-6.229,4.498-8.036,4.911
							c-1.807,0.412-3.571-0.562-3.94-2.178S326.664,208.324,328.472,207.912z"/>
						<path style="fill:#60C2AB;" d="M331.743,216.189c0.804-1.67,5.083-7.461,6.576-6.742c1.493,0.719-0.367,7.674-1.171,9.345
							c-0.804,1.67-2.666,2.441-4.159,1.723C331.497,219.796,330.939,217.859,331.743,216.189z"/>
						<path style="fill:#60C2AB;" d="M340.254,218.792c-0.804-1.67-2.663-8.626-1.171-9.345c1.493-0.719,5.772,5.072,6.576,6.742
							c0.804,1.67,0.246,3.607-1.246,4.326C342.921,221.233,341.058,220.462,340.254,218.792z"/>
						<path style="fill:#60C2AB;" d="M347.596,213.76c-1.807-0.413-8.405-3.296-8.036-4.911c0.369-1.615,7.564-1.35,9.371-0.938
							c1.807,0.412,2.974,2.056,2.605,3.671C351.167,213.198,349.403,214.173,347.596,213.76z"/>
						<path style="fill:#60C2AB;" d="M348.24,204.883c-1.449,1.156-7.817,4.516-8.85,3.221c-1.033-1.295,3.66-6.756,5.109-7.911
							c1.449-1.156,3.462-1.043,4.495,0.252C350.027,201.741,349.689,203.728,348.24,204.883z"/>
					</g>
				</g>
				<circle style="fill:#FFC100;" cx="338.701" cy="208.654" r="4.758"/>
			</g>
			<g>
				<g>
					<g>
						<path style="fill:#60C2AB;" d="M231.463,27.433c0,1.854-1.343,8.927-3,8.927c-1.657,0-3-7.074-3-8.927
							c0-1.854,1.343-3.357,3-3.357C230.12,24.076,231.463,25.579,231.463,27.433z"/>
						<path style="fill:#60C2AB;" d="M222.666,28.78c1.449,1.156,6.142,6.616,5.109,7.911s-7.401-2.065-8.85-3.221
							c-1.449-1.156-1.787-3.143-0.754-4.438S221.216,27.625,222.666,28.78z"/>
						<path style="fill:#60C2AB;" d="M218.234,36.499c1.807-0.412,9.002-0.677,9.371,0.938c0.369,1.615-6.229,4.498-8.036,4.911
							c-1.807,0.413-3.571-0.562-3.94-2.177C215.26,38.555,216.427,36.911,218.234,36.499z"/>
						<path style="fill:#60C2AB;" d="M221.506,44.776c0.804-1.67,5.083-7.461,6.576-6.742c1.493,0.719-0.367,7.675-1.171,9.345
							c-0.804,1.67-2.666,2.442-4.159,1.723S220.701,46.446,221.506,44.776z"/>
						<path style="fill:#60C2AB;" d="M230.017,47.379c-0.804-1.67-2.664-8.626-1.171-9.345c1.493-0.719,5.772,5.072,6.576,6.742
							c0.804,1.67,0.246,3.607-1.246,4.326C232.683,49.82,230.821,49.049,230.017,47.379z"/>
						<path style="fill:#60C2AB;" d="M237.358,42.347c-1.807-0.412-8.405-3.296-8.036-4.911c0.369-1.615,7.564-1.35,9.371-0.938
							c1.807,0.413,2.974,2.056,2.605,3.671C240.93,41.785,239.166,42.76,237.358,42.347z"/>
						<path style="fill:#60C2AB;" d="M238.002,33.471c-1.449,1.156-7.817,4.516-8.85,3.221s3.66-6.755,5.109-7.911
							c1.449-1.156,3.462-1.043,4.495,0.252S239.451,32.315,238.002,33.471z"/>
					</g>
				</g>
				<path style="fill:#FFC100;" d="M233.221,37.241c0-2.628-2.13-4.758-4.758-4.758c-2.628,0-4.757,2.13-4.757,4.758
					c0,2.627,2.13,4.757,4.757,4.757C231.091,41.998,233.221,39.868,233.221,37.241z"/>
			</g>
			<g>
				<g>
					<g>
						<path style="fill:#60C2AB;" d="M93.482,337.356c0,1.854-1.343,8.927-3,8.927c-1.657,0-3-7.074-3-8.927
							c0-1.854,1.343-3.357,3-3.357C92.139,334,93.482,335.503,93.482,337.356z"/>
						<path style="fill:#60C2AB;" d="M84.684,338.704c1.449,1.156,6.142,6.616,5.109,7.911s-7.4-2.065-8.85-3.221
							c-1.449-1.156-1.787-3.143-0.754-4.438C81.223,337.661,83.235,337.548,84.684,338.704z"/>
						<path style="fill:#60C2AB;" d="M80.253,346.422c1.807-0.413,9.002-0.677,9.371,0.938c0.369,1.615-6.229,4.498-8.036,4.911
							c-1.807,0.412-3.571-0.562-3.94-2.177C77.279,348.479,78.445,346.835,80.253,346.422z"/>
						<path style="fill:#60C2AB;" d="M83.524,354.699c0.804-1.67,5.083-7.461,6.576-6.742s-0.367,7.674-1.171,9.345
							c-0.804,1.67-2.666,2.442-4.159,1.723S82.72,356.37,83.524,354.699z"/>
						<path style="fill:#60C2AB;" d="M92.035,357.302c-0.804-1.67-2.663-8.626-1.171-9.345c1.493-0.719,5.772,5.072,6.576,6.742
							c0.804,1.67,0.246,3.607-1.246,4.326S92.84,358.973,92.035,357.302z"/>
						<path style="fill:#60C2AB;" d="M99.377,352.271c-1.807-0.413-8.405-3.296-8.036-4.911c0.369-1.615,7.564-1.35,9.371-0.938
							s2.974,2.056,2.605,3.671C102.948,351.709,101.184,352.684,99.377,352.271z"/>
						<path style="fill:#60C2AB;" d="M100.021,343.394c-1.449,1.156-7.817,4.516-8.85,3.221s3.66-6.755,5.109-7.911
							c1.449-1.156,3.462-1.043,4.495,0.252C101.808,340.251,101.47,342.238,100.021,343.394z"/>
					</g>
				</g>
				<path style="fill:#FFC100;" d="M95.24,347.164c0-2.628-2.13-4.758-4.757-4.758c-2.628,0-4.758,2.13-4.758,4.758
					c0,2.628,2.13,4.758,4.758,4.758C93.11,351.922,95.24,349.792,95.24,347.164z"/>
			</g>
			<g>
				<g>
					<g>
						<path style="fill:#60C2AB;" d="M399.607,444.944c0,1.854-1.343,8.927-3,8.927c-1.657,0-3-7.073-3-8.927
							c0-1.854,1.343-3.357,3-3.357C398.264,441.588,399.607,443.091,399.607,444.944z"/>
						<path style="fill:#60C2AB;" d="M390.809,446.292c1.449,1.156,6.142,6.616,5.109,7.911s-7.4-2.065-8.85-3.221
							c-1.449-1.156-1.787-3.143-0.754-4.438S389.36,445.136,390.809,446.292z"/>
						<path style="fill:#60C2AB;" d="M386.377,454.011c1.807-0.412,9.002-0.677,9.371,0.938c0.369,1.615-6.229,4.498-8.036,4.911
							c-1.807,0.413-3.571-0.562-3.94-2.178C383.404,456.067,384.57,454.423,386.377,454.011z"/>
						<path style="fill:#60C2AB;" d="M389.649,462.288c0.804-1.67,5.083-7.461,6.576-6.742c1.493,0.719-0.367,7.674-1.171,9.345
							c-0.804,1.67-2.666,2.442-4.159,1.723C389.402,465.895,388.844,463.958,389.649,462.288z"/>
						<path style="fill:#60C2AB;" d="M398.16,464.891c-0.804-1.67-2.663-8.626-1.171-9.345c1.493-0.719,5.772,5.072,6.576,6.742
							c0.804,1.67,0.246,3.607-1.246,4.326C400.826,467.332,398.964,466.561,398.16,464.891z"/>
						<path style="fill:#60C2AB;" d="M405.502,459.859c-1.807-0.413-8.405-3.296-8.036-4.911c0.369-1.615,7.564-1.35,9.371-0.938
							c1.807,0.413,2.974,2.056,2.605,3.671C409.073,459.297,407.309,460.272,405.502,459.859z"/>
						<path style="fill:#60C2AB;" d="M406.145,450.983c-1.449,1.156-7.817,4.516-8.85,3.221s3.66-6.755,5.109-7.911
							c1.449-1.156,3.462-1.043,4.495,0.252C407.932,447.84,407.595,449.827,406.145,450.983z"/>
					</g>
				</g>
				<path style="fill:#FFC100;" d="M401.365,454.753c0-2.628-2.13-4.758-4.758-4.758c-2.628,0-4.758,2.13-4.758,4.758
					c0,2.628,2.13,4.758,4.758,4.758C399.234,459.51,401.365,457.38,401.365,454.753z"/>
			</g>
			<g>
				<g>
					<g>
						<path style="fill:#60C2AB;" d="M456.928,320.647c0,1.854-1.343,8.927-3,8.927c-1.657,0-3-7.073-3-8.927
							c0-1.854,1.343-3.357,3-3.357C455.585,317.29,456.928,318.793,456.928,320.647z"/>
						<path style="fill:#60C2AB;" d="M448.131,321.995c1.449,1.156,6.142,6.616,5.109,7.911s-7.401-2.065-8.85-3.221
							c-1.449-1.156-1.787-3.143-0.754-4.438C444.669,320.952,446.681,320.839,448.131,321.995z"/>
						<path style="fill:#60C2AB;" d="M443.699,329.713c1.807-0.413,9.002-0.677,9.371,0.938s-6.229,4.499-8.036,4.911
							c-1.807,0.412-3.571-0.562-3.94-2.178C440.726,331.769,441.892,330.126,443.699,329.713z"/>
						<path style="fill:#60C2AB;" d="M446.971,337.99c0.804-1.67,5.083-7.461,6.576-6.742c1.493,0.719-0.367,7.674-1.171,9.345
							c-0.804,1.67-2.666,2.441-4.159,1.723C446.724,341.597,446.166,339.661,446.971,337.99z"/>
						<path style="fill:#60C2AB;" d="M455.482,340.593c-0.804-1.67-2.663-8.626-1.171-9.345c1.493-0.719,5.772,5.072,6.576,6.742
							c0.804,1.67,0.246,3.607-1.246,4.326C458.148,343.035,456.286,342.263,455.482,340.593z"/>
						<path style="fill:#60C2AB;" d="M462.823,335.562c-1.807-0.413-8.405-3.296-8.036-4.911s7.564-1.35,9.371-0.938
							c1.807,0.413,2.974,2.056,2.605,3.671C466.395,335,464.631,335.974,462.823,335.562z"/>
						<path style="fill:#60C2AB;" d="M463.467,326.685c-1.449,1.156-7.817,4.516-8.85,3.221s3.66-6.755,5.109-7.911
							c1.449-1.156,3.462-1.043,4.495,0.252C465.254,323.542,464.917,325.529,463.467,326.685z"/>
					</g>
				</g>
				<circle style="fill:#FFC100;" cx="453.929" cy="330.455" r="4.758"/>
			</g>
			<g>
				<g>
					<g>
						<path style="fill:#60C2AB;" d="M48.91,63.064c0,2.588-1.875,12.462-4.187,12.462c-2.313,0-4.187-9.874-4.187-12.462
							c0-2.588,1.875-4.686,4.187-4.686C47.035,58.378,48.91,60.476,48.91,63.064z"/>
						<path style="fill:#60C2AB;" d="M36.628,64.945c2.023,1.614,8.575,9.236,7.133,11.044c-1.442,1.808-10.331-2.883-12.354-4.496
							c-2.023-1.614-2.495-4.387-1.053-6.195C31.796,63.489,34.605,63.332,36.628,64.945z"/>
						<path style="fill:#60C2AB;" d="M30.442,75.72c2.523-0.576,12.567-0.945,13.082,1.309c0.515,2.255-8.695,6.28-11.218,6.855
							c-2.523,0.576-4.985-0.785-5.5-3.04C26.291,78.59,27.919,76.296,30.442,75.72z"/>
						<path style="fill:#60C2AB;" d="M35.009,87.274c1.123-2.332,7.096-10.415,9.18-9.411c2.084,1.003-0.512,10.713-1.635,13.045
							c-1.123,2.332-3.722,3.408-5.806,2.405C34.665,92.31,33.886,89.606,35.009,87.274z"/>
						<path style="fill:#60C2AB;" d="M46.89,90.908c-1.123-2.332-3.718-12.042-1.635-13.045c2.084-1.003,8.057,7.08,9.18,9.411
							c1.123,2.332,0.344,5.035-1.74,6.039C50.612,94.316,48.013,93.24,46.89,90.908z"/>
						<path style="fill:#60C2AB;" d="M57.139,83.885c-2.523-0.576-11.733-4.601-11.218-6.855c0.515-2.255,10.559-1.885,13.082-1.309
							c2.523,0.576,4.151,2.87,3.637,5.125C62.124,83.1,59.662,84.461,57.139,83.885z"/>
						<path style="fill:#60C2AB;" d="M58.037,71.493c-2.023,1.614-10.912,6.304-12.354,4.496c-1.442-1.808,5.109-9.43,7.133-11.044
							c2.023-1.613,4.832-1.456,6.274,0.352C60.532,67.106,60.061,69.879,58.037,71.493z"/>
					</g>
				</g>
				<circle style="fill:#FFC100;" cx="44.722" cy="76.756" r="6.641"/>
			</g>
		</g>
	</g>
</g>
</svg>
